<?xml version="1.0" standalone="no"?>
<!DOCTYPE svg PUBLIC "-//W3C//DTD SVG 20010904//EN"
 "http://www.w3.org/TR/2001/REC-SVG-20010904/DTD/svg10.dtd">
<svg version="1.0" xmlns="http://www.w3.org/2000/svg"
 width="512.000000pt" height="512.000000pt" viewBox="0 0 512.000000 512.000000"
 preserveAspectRatio="xMidYMid meet">

<g transform="translate(0.000000,512.000000) scale(0.100000,-0.100000)"
fill="#000000" stroke="none">
<path d="M2590 4913 c-30 -16 -62 -39 -72 -53 -10 -14 -112 -226 -227 -473
-116 -246 -219 -460 -230 -476 -28 -38 -114 -81 -165 -81 -21 0 -261 59 -531
130 -314 83 -510 130 -541 130 -38 0 -63 -8 -104 -32 l-55 -33 -292 -580
c-161 -319 -295 -595 -299 -613 -4 -21 -1 -47 8 -70 26 -66 250 -403 280 -422
15 -9 211 -72 435 -140 225 -67 409 -123 410 -124 1 -1 -94 -209 -213 -461
-118 -252 -219 -477 -225 -500 -8 -31 -7 -50 3 -80 15 -43 221 -346 261 -383
35 -33 1294 -452 1358 -452 57 0 122 33 160 80 14 19 124 268 243 554 120 285
227 531 238 547 30 40 112 79 166 79 28 0 241 -60 589 -165 397 -120 559 -165
596 -165 62 0 128 30 161 74 33 42 496 1252 496 1294 0 60 -60 423 -75 452
-17 32 -52 62 -92 78 -15 7 -251 70 -523 142 -272 72 -500 132 -507 135 -7 2
47 141 143 371 85 203 157 379 160 391 9 32 -85 476 -108 513 -10 17 -37 39
-60 50 -52 24 -1251 310 -1300 310 -19 0 -59 -12 -88 -27z m677 -614 c24 -129
57 -301 72 -384 16 -82 28 -151 27 -152 -2 -3 -612 153 -763 194 -56 15 -102
32 -103 36 -1 11 703 547 714 544 5 -2 29 -109 53 -238z m-1992 -744 c176 -48
324 -90 329 -95 11 -11 -289 -644 -308 -648 -8 -2 -149 36 -313 83 -362 104
-363 105 -363 114 0 5 70 150 155 324 102 209 159 315 167 312 7 -2 157 -43
333 -90z m2770 -610 c164 -35 292 -130 362 -271 37 -76 38 -80 38 -188 -1
-126 -19 -185 -80 -272 -72 -101 -232 -204 -375 -240 -92 -23 -239 -15 -346
20 -348 112 -435 514 -168 782 148 149 361 213 569 169z m-2240 -1121 c44 -99
85 -189 90 -200 10 -20 20 -16 243 87 l232 107 25 -49 25 -49 -39 -20 c-37
-18 -266 -125 -378 -176 l-52 -23 91 -203 c49 -112 92 -208 94 -213 6 -13
-106 -69 -116 -58 -4 4 -47 99 -96 211 -48 111 -91 202 -95 202 -4 0 -110 -47
-235 -105 -126 -58 -231 -101 -235 -97 -3 4 -13 26 -23 50 l-16 43 106 50 c58
28 163 77 232 109 70 32 126 63 125 68 -1 6 -41 98 -89 206 -48 108 -85 199
-82 201 9 10 94 43 103 41 5 -1 46 -83 90 -182z"/>
<path d="M3095 4344 c-16 -14 -114 -89 -218 -166 -103 -78 -186 -143 -183
-145 2 -2 124 -35 270 -73 186 -48 266 -64 266 -55 0 20 -60 334 -77 403 -8
34 -18 62 -22 62 -3 -1 -19 -12 -36 -26z"/>
<path d="M857 3303 c-65 -130 -114 -240 -110 -244 5 -4 114 -37 243 -73 129
-37 242 -69 251 -72 12 -3 42 50 133 242 64 136 116 248 114 249 -5 4 -493
135 -503 135 -6 0 -64 -107 -128 -237z"/>
<path d="M3845 2869 c-163 -20 -299 -115 -368 -255 -41 -83 -50 -121 -45 -208
3 -68 10 -91 37 -144 166 -310 666 -283 828 46 36 72 38 81 38 171 0 84 -3
103 -27 151 -39 80 -90 134 -166 179 -97 57 -184 75 -297 60z"/>
</g>
</svg>