<?xml version="1.0" standalone="no"?>
<!DOCTYPE svg PUBLIC "-//W3C//DTD SVG 20010904//EN"
 "http://www.w3.org/TR/2001/REC-SVG-20010904/DTD/svg10.dtd">
<svg version="1.0" xmlns="http://www.w3.org/2000/svg"
 width="512.000000pt" height="512.000000pt" viewBox="0 0 512.000000 512.000000"
 preserveAspectRatio="xMidYMid meet">

<g transform="translate(0.000000,512.000000) scale(0.100000,-0.100000)"
fill="#000000" stroke="none">
<path d="M1288 4110 c-267 -32 -507 -144 -699 -327 -288 -274 -422 -660 -365
-1053 l17 -115 -60 -380 c-68 -431 -144 -964 -161 -1134 -23 -219 20 -354 149
-474 84 -77 148 -101 271 -102 162 0 102 -44 960 710 13 12 25 7 83 -30 38
-24 105 -56 150 -72 75 -26 94 -28 227 -28 133 0 152 3 225 28 216 76 382 246
451 461 21 69 22 69 29 35 24 -111 113 -258 211 -348 129 -118 296 -181 478
-181 153 0 284 39 399 119 l45 30 353 -311 c195 -171 374 -326 399 -344 109
-82 272 -95 397 -34 150 74 253 247 253 425 0 116 -71 638 -180 1330 -49 308
-49 311 -35 390 30 168 14 405 -39 566 -139 426 -462 718 -911 822 -89 21
-110 21 -1335 23 -685 1 -1275 -2 -1312 -6z m2460 -366 c145 -60 184 -265 70
-371 -36 -34 -108 -63 -158 -63 -50 0 -122 29 -158 63 -113 105 -76 309 68
371 46 20 131 20 178 0z m-2194 -45 l26 -20 0 -172 0 -172 -88 -88 -87 -87
-93 93 -92 92 0 152 c0 163 7 198 42 213 13 5 78 9 144 9 108 1 124 -1 148
-20z m1720 -411 c51 -16 119 -82 136 -132 20 -63 9 -157 -25 -206 -125 -180
-406 -94 -406 125 0 157 141 259 295 213z m-2039 -118 l90 -90 -90 -90 -90
-90 -161 0 c-222 0 -214 -6 -214 181 0 189 -11 179 208 179 l167 0 90 -90z
m784 64 c19 -24 21 -40 21 -156 0 -124 -1 -130 -25 -153 -24 -25 -27 -25 -187
-25 l-163 0 -90 90 -90 90 90 90 90 90 167 0 167 0 20 -26z m-439 -574 c0
-223 11 -210 -175 -210 -191 0 -185 -7 -185 209 l0 156 92 92 93 93 87 -87 88
-88 0 -165z m2151 169 c171 -52 205 -295 56 -396 -152 -102 -348 0 -348 181 0
157 140 260 292 215z"/>
</g>
</svg>